<svg width="36" height="36" viewBox="0 0 36 36" fill="none" xmlns="http://www.w3.org/2000/svg">
<path d="M27.8182 1.71389C27.8182 0.767344 27.0856 0 26.1818 0C25.2781 0 24.5455 0.767344 24.5455 1.71389V3.42779H18C17.0962 3.42779 16.3636 4.19513 16.3636 5.14168V7.28404C16.3636 8.23059 17.0962 8.99794 18 8.99794C18.9038 8.99794 19.6364 8.23059 19.6364 7.28404V6.85557H32.7273V7.28404C32.7273 8.23059 33.4599 8.99794 34.3636 8.99794C35.2674 8.99794 36 8.23059 36 7.28404V5.14168C36 4.19513 35.2674 3.42779 34.3636 3.42779H27.8182V1.71389ZM12.3755 11.1496L12.4672 11.3497L21.1518 33.6381C21.4933 34.5145 21.0917 35.5149 20.2551 35.8725C19.4781 36.2046 18.5991 35.8658 18.2041 35.1141L18.1217 34.9332L15.8618 29.1345H5.5755L3.13581 34.973C2.79927 35.7782 1.94324 36.1765 1.1598 35.9252L0.980571 35.8557C0.211823 35.5033 -0.168459 34.6068 0.0713088 33.7861L0.137745 33.5985L9.45314 11.31C10.0041 9.99169 11.7352 9.9482 12.3755 11.1496ZM10.8994 16.3975L7.00731 25.7067H14.5264L10.8994 16.3975ZM20.4537 10.2834C20.4537 9.33681 21.1863 8.56946 22.0901 8.56946H30.2719C30.9338 8.56946 31.5304 8.98704 31.7837 9.62748C32.0371 10.2679 31.897 11.0051 31.429 11.4953L28.4951 14.5681H34.363C35.2667 14.5681 35.9993 15.3354 35.9993 16.282C35.9993 17.2286 35.2667 17.9959 34.363 17.9959H27.8174V23.1101C27.8174 25.9802 25.1758 28.0388 22.5509 27.214L21.62 26.9215C20.7543 26.6495 20.2631 25.694 20.5228 24.7875C20.7825 23.8809 21.6947 23.3664 22.5604 23.6384L23.4913 23.9309C24.0163 24.0958 24.5446 23.6841 24.5446 23.1101V17.9959H18C17.0962 17.9959 16.3636 17.2286 16.3636 16.282C16.3636 15.3354 17.0962 14.5681 18 14.5681H24.5446C24.5446 14.1135 24.7171 13.6776 25.0239 13.3562L26.3214 11.9972H22.0901C21.1863 11.9972 20.4537 11.2299 20.4537 10.2834Z" fill="white"/>
</svg>
