<svg width="46" height="46" viewBox="0 0 46 46" fill="none" xmlns="http://www.w3.org/2000/svg">
<path fill-rule="evenodd" clip-rule="evenodd" d="M14.9257 4.09676C15.9102 2.96096 17.1277 2.05032 18.4953 1.42668C19.863 0.803038 21.3489 0.480998 22.852 0.482427C26.0183 0.482427 28.8557 1.88243 30.7783 4.09676C32.278 3.98968 33.7831 4.20662 35.1914 4.73284C36.5998 5.25906 37.8783 6.08222 38.9403 7.14643C40.0041 8.20824 40.827 9.48646 41.3532 10.8944C41.8794 12.3022 42.0966 13.8069 41.99 15.3061C43.1254 16.2909 44.0356 17.5084 44.6588 18.8761C45.282 20.2437 45.6037 21.7295 45.602 23.2324C45.6034 24.7356 45.2814 26.2214 44.6577 27.5891C44.0341 28.9567 43.1235 30.1742 41.9877 31.1588C42.0942 32.658 41.8771 34.1626 41.3509 35.5705C40.8247 36.9784 40.0018 38.2566 38.938 39.3184C37.8762 40.3822 36.598 41.2051 35.1901 41.7313C33.7822 42.2575 32.2776 42.4747 30.7783 42.3681C29.7938 43.5039 28.5763 44.4145 27.2086 45.0382C25.841 45.6618 24.3551 45.9839 22.852 45.9824C21.3489 45.9839 19.863 45.6618 18.4953 45.0382C17.1277 44.4145 15.9102 43.5039 14.9257 42.3681C13.4262 42.4755 11.9212 42.2589 10.5129 41.7331C9.10454 41.2073 7.82586 40.3845 6.76366 39.3208C5.69959 38.2587 4.8765 36.9801 4.35029 35.5718C3.82408 34.1634 3.60707 32.6584 3.714 31.1588C2.57862 30.174 1.66842 28.9564 1.04519 27.5888C0.421954 26.2211 0.100278 24.7354 0.101997 23.2324C0.101997 20.0661 1.502 17.2288 3.71633 15.3061C3.60959 13.8068 3.8267 12.3022 4.35291 10.8943C4.87912 9.48636 5.7021 8.20815 6.766 7.14643C7.82772 6.08253 9.10593 5.25955 10.5138 4.73334C11.9218 4.20713 13.4264 3.99002 14.9257 4.09676ZM31.2753 18.9998C31.4153 18.8132 31.5166 18.6006 31.5733 18.3743C31.6299 18.1481 31.6408 17.9128 31.6052 17.6823C31.5696 17.4517 31.4882 17.2307 31.366 17.0321C31.2437 16.8334 31.083 16.6612 30.8933 16.5256C30.7035 16.39 30.4886 16.2937 30.2611 16.2423C30.0335 16.1909 29.7981 16.1856 29.5684 16.2265C29.3388 16.2674 29.1197 16.3539 28.924 16.4807C28.7282 16.6076 28.5598 16.7722 28.4287 16.9651L20.878 27.5351L17.0887 23.7458C16.7569 23.4366 16.3181 23.2684 15.8648 23.2764C15.4114 23.2843 14.9788 23.468 14.6582 23.7886C14.3376 24.1093 14.1539 24.5418 14.1459 24.9952C14.1379 25.4486 14.3062 25.8874 14.6153 26.2191L19.8653 31.4691C20.045 31.6486 20.2615 31.7869 20.5 31.8743C20.7384 31.9617 20.993 31.9961 21.2461 31.9753C21.4992 31.9544 21.7447 31.8787 21.9656 31.7534C22.1865 31.6281 22.3775 31.4563 22.5253 31.2498L31.2753 18.9998Z" fill="url(#paint0_linear_5990_1869)"/>
<defs>
<linearGradient id="paint0_linear_5990_1869" x1="0.10199" y1="0.482422" x2="22.852" y2="45.9824" gradientUnits="userSpaceOnUse">
<stop offset="0.25277" stop-color="#06594B" stop-opacity="0.8"/>
<stop offset="1" stop-color="#06594B"/>
</linearGradient>
</defs>
</svg>
