<svg width="39" height="39" viewBox="0 0 39 39" fill="none" xmlns="http://www.w3.org/2000/svg">
<path d="M11.2336 14.4609L5.65541 19.117L11.2336 23.7731C11.4223 23.924 11.5789 24.1111 11.6942 24.3234C11.8096 24.5357 11.8814 24.7689 11.9054 25.0093C11.9294 25.2497 11.9051 25.4924 11.8341 25.7233C11.763 25.9542 11.6465 26.1686 11.4914 26.3539C11.3364 26.5391 11.1459 26.6916 10.9311 26.8022C10.7163 26.9128 10.4816 26.9795 10.2407 26.9982C9.99988 27.0169 9.7577 26.9873 9.52843 26.9111C9.29916 26.835 9.0874 26.7138 8.9056 26.5547L1.64935 20.5078C1.44604 20.3375 1.28253 20.1248 1.17033 19.8845C1.05814 19.6442 1 19.3822 1 19.117C1 18.8518 1.05814 18.5899 1.17033 18.3496C1.28253 18.1093 1.44604 17.8965 1.64935 17.7262L8.9056 11.6794C9.27586 11.3831 9.7474 11.2436 10.2192 11.2907C10.6911 11.3379 11.1257 11.5679 11.4301 11.9315C11.7344 12.2951 11.8843 12.7635 11.8476 13.2363C11.8109 13.709 11.5905 14.1486 11.2336 14.4609ZM25.2019 4.10565C24.7487 3.94455 24.2503 3.96844 23.8146 4.17216C23.3788 4.37587 23.0409 4.74302 22.8739 5.19409L13.1989 31.8003C13.0378 32.2535 13.0617 32.752 13.2654 33.1877C13.4691 33.6234 13.8362 33.9614 14.2873 34.1284C14.486 34.2001 14.6959 34.2359 14.9071 34.2342C15.2801 34.2349 15.6442 34.1206 15.9499 33.9069C16.2556 33.6932 16.4879 33.3905 16.6154 33.0399L26.2904 6.4337C26.4515 5.98049 26.4276 5.48205 26.2239 5.04633C26.0201 4.6106 25.653 4.27265 25.2019 4.10565Z" fill="white"/>
<path d="M29.3798 11.6667L36.636 17.7135C36.8393 17.8838 37.0028 18.0966 37.115 18.3369C37.2272 18.5772 37.2854 18.8391 37.2854 19.1043C37.2854 19.3695 37.2272 19.6315 37.115 19.8718C37.0028 20.1121 36.8393 20.3248 36.636 20.4951L29.3798 26.542C29.0534 26.8153 28.6414 26.9651 28.2157 26.9653C27.9508 26.9631 27.6895 26.904 27.4495 26.7918C27.2095 26.6796 26.9965 26.5171 26.825 26.3152C26.6702 26.1334 26.5533 25.9226 26.4808 25.6952C26.4084 25.4677 26.382 25.2281 26.4031 24.9903C26.4242 24.7525 26.4924 24.5213 26.6038 24.3102C26.7151 24.099 26.8674 23.9121 27.0517 23.7604L32.6451 19.1043L27.0517 14.4482C26.6949 14.1359 26.4745 13.6963 26.4378 13.2236C26.4011 12.7508 26.5509 12.2824 26.8553 11.9188C27.1596 11.5552 27.5943 11.3252 28.0661 11.278C28.538 11.2309 29.0095 11.3704 29.3798 11.6667Z" fill="white"/>
</svg>
