<svg width="40" height="8" viewBox="0 0 40 8" fill="none" xmlns="http://www.w3.org/2000/svg">
<path fill-rule="evenodd" clip-rule="evenodd" d="M0 4C0 2.93913 0.421427 1.92172 1.17157 1.17157C1.92172 0.421427 2.93913 0 4 0C5.06087 0 6.07828 0.421427 6.82843 1.17157C7.57857 1.92172 8 2.93913 8 4C8 5.06087 7.57857 6.07828 6.82843 6.82843C6.07828 7.57857 5.06087 8 4 8C2.93913 8 1.92172 7.57857 1.17157 6.82843C0.421427 6.07828 0 5.06087 0 4ZM16 4C16 2.93913 16.4214 1.92172 17.1716 1.17157C17.9217 0.421427 18.9391 0 20 0C21.0609 0 22.0783 0.421427 22.8284 1.17157C23.5786 1.92172 24 2.93913 24 4C24 5.06087 23.5786 6.07828 22.8284 6.82843C22.0783 7.57857 21.0609 8 20 8C18.9391 8 17.9217 7.57857 17.1716 6.82843C16.4214 6.07828 16 5.06087 16 4ZM32 4C32 2.93913 32.4214 1.92172 33.1716 1.17157C33.9217 0.421427 34.9391 0 36 0C37.0609 0 38.0783 0.421427 38.8284 1.17157C39.5786 1.92172 40 2.93913 40 4C40 5.06087 39.5786 6.07828 38.8284 6.82843C38.0783 7.57857 37.0609 8 36 8C34.9391 8 33.9217 7.57857 33.1716 6.82843C32.4214 6.07828 32 5.06087 32 4Z" fill="white"/>
</svg>
