<svg width="36" height="36" viewBox="0 0 36 36" fill="none" xmlns="http://www.w3.org/2000/svg">
<path d="M27.4365 0L22.5265 0.236998L3.01273 15.8236L23.2944 11.7551C23.7443 11.3917 24.1399 11.0441 24.4889 10.7202L21.6732 3.55497L22.8755 3.06518L25.4896 9.71692C29.7635 4.96116 23.9072 4.10007 27.4365 0ZM25.9395 10.8545L24.9156 11.7946L25.6602 13.6985C24.9543 13.6669 24.1709 13.6511 23.2944 13.6432L3.01273 17.7196C3.01273 17.7196 3.03911 17.8934 3.07789 18.154C3.26095 19.3785 2.47829 20.5398 1.2884 20.8084C0.595721 20.9664 0 21.1007 0 21.1007L0.306393 22.7755L26.2265 25.185L36 20.9269L35.9302 17.4984C29.6394 16.8111 35.0459 14.3858 27.0875 13.7854L25.9395 10.8545ZM4.74637 20.0816L26.048 21.8354L24.6441 23.1073L2.87234 21.0612L4.74637 20.0816ZM4.64166 24.316L5.70046 31.9868L5.4313 32.4766L5.45922 33.7248L6.78796 33.8512L8.11437 33.3614V32.3186L7.74204 32.0105L8.44791 24.6636L4.64166 24.316ZM12.5202 25.2719V31.2363L20.6804 31.9473V26.0066L19.385 25.8881V30.5253L13.8156 30.0514V25.3904L12.5202 25.2719ZM28.7939 25.4852L26.5135 26.3463L24.5898 26.1883L25.7998 34.0408L25.4973 34.4437L25.5594 35.8657L26.8858 36L28.1191 35.4154L28.1424 34.3726L27.8399 34.0645L28.7939 25.4852ZM12.6055 32.5635L10.4026 33.314L10.6431 34.4516L18.5783 35.2495L20.2072 34.6649L20.2925 33.2192L12.6055 32.5635Z" fill="white"/>
</svg>
