<svg width="36" height="36" viewBox="0 0 36 36" fill="none" xmlns="http://www.w3.org/2000/svg">
<path d="M18.4615 8.47059L3.69231 8.47059C2.71305 8.47059 1.77389 8.91681 1.08145 9.71108C0.38901 10.5054 0 11.5826 0 12.7059L0 21.1765C0 22.2997 0.38901 23.377 1.08145 24.1713C1.77389 24.9655 2.71305 25.4118 3.69231 25.4118H5.53846V33.8824C5.53846 34.444 5.73297 34.9826 6.07919 35.3798C6.42541 35.7769 6.89498 36 7.38462 36H11.0769C11.5666 36 12.0361 35.7769 12.3824 35.3798C12.7286 34.9826 12.9231 34.444 12.9231 33.8824V25.4118H18.4615L27.6923 33.8824L27.6923 0L18.4615 8.47059ZM36 16.9412C36 20.5624 34.2277 23.8447 31.3846 25.4118V8.47059C34.2092 10.0588 36 13.3412 36 16.9412Z" fill="white"/>
</svg>
