<svg width="36" height="37" viewBox="0 0 36 37" fill="none" xmlns="http://www.w3.org/2000/svg">
<path d="M34.9489 0L19.9501 9.27413L21.4444 9.98686L35.6812 1.18398L34.949 0H34.9489ZM3.75891 3.09329L3.15965 4.34981L25.326 14.9234L25.4334 15.1334C25.6843 15.6242 26.1819 16.102 26.8042 16.3997L26.8044 16.3999L26.8047 16.4C27.4672 16.7159 28.1341 16.8149 28.6323 16.7383C29.1307 16.6615 29.433 16.4575 29.6009 16.1056C29.7688 15.7537 29.7297 15.4567 29.4675 15.0535C29.2053 14.6503 28.6846 14.2118 28.003 13.8867C27.3794 13.5895 26.6938 13.503 26.1537 13.617L25.923 13.6657L3.75891 3.09321V3.09329ZM13.125 10.6459C9.95886 10.8712 7.13589 11.3145 4.92007 11.9053C3.28309 12.3418 1.97636 12.8637 1.13386 13.3949C0.291354 13.9262 0 14.4021 0 14.7329C0 15.0637 0.291354 15.5396 1.13386 16.0709C1.97644 16.6021 3.28309 17.124 4.92007 17.5605C8.19403 18.4336 12.7906 18.9868 17.8664 18.9868C21.6702 18.9868 25.2048 18.6761 28.1154 18.153C27.4871 18.1278 26.8356 17.9573 26.2048 17.6563L26.2046 17.6561L26.2043 17.656C25.4154 17.2787 24.7646 16.6984 24.3376 15.9943L18.7143 13.312L15.8914 15.0574C15.5434 15.8037 14.9594 16.4512 14.216 16.9118L14.2159 16.912L14.2155 16.9121C13.3868 17.4245 12.491 17.6911 11.6415 17.6537C10.7919 17.6163 9.95584 17.2295 9.48698 16.4711C9.01813 15.7129 9.07196 14.7931 9.44715 14.0507C9.82227 13.3084 10.4758 12.6771 11.2868 12.1757L11.2869 12.1756H11.2871C12.0319 11.7153 12.8729 11.4816 13.6971 11.5036L14.2311 11.1734L13.1251 10.6459H13.125ZM22.9811 10.6737L22.9389 10.6997L26.1332 12.2234C26.9502 12.112 27.8117 12.2532 28.602 12.63H28.6024C29.4629 13.0404 30.1812 13.5971 30.6346 14.2944C31.0881 14.9916 31.2413 15.9003 30.8574 16.705C30.6192 17.2044 30.2249 17.5767 29.7591 17.8184C30.1225 17.7356 30.4763 17.6502 30.8127 17.5605C32.4497 17.124 33.7564 16.6021 34.599 16.0709C35.4415 15.5396 35.7328 15.0637 35.7328 14.7329C35.7328 14.4021 35.4415 13.9262 34.599 13.3949C33.7564 12.8637 32.4497 12.3418 30.8127 11.9053C28.6846 11.3378 25.9953 10.9068 22.9811 10.6737ZM15.7255 11.8863L14.0626 12.9144L13.8281 12.8912C13.2788 12.8364 12.6066 12.9967 12.019 13.3597L12.0188 13.3599C11.3765 13.7571 10.9065 14.2495 10.6896 14.6786C10.4727 15.1079 10.4661 15.4073 10.6712 15.739C10.8762 16.0706 11.1988 16.2406 11.7027 16.2628C12.2064 16.285 12.8589 16.1141 13.4833 15.7279C14.0696 15.3645 14.5124 14.8355 14.7086 14.3204L14.7926 14.0999L17.2199 12.5991L15.7254 11.8863H15.7255ZM1.13247 17.6652L3.21619 21.1379L5.79251 19.2057C5.3801 19.1139 4.96958 19.0139 4.56119 18.9057C3.21912 18.5478 2.06662 18.1378 1.13247 17.6652ZM34.6002 17.6652C33.666 18.1377 32.5135 18.5478 31.1714 18.9058C30.6357 19.0485 30.0667 19.1815 29.4738 19.306L32.4845 21.1914L34.6002 17.6652ZM35.7328 18.4835L34.3734 20.7491C34.4307 20.7248 34.4877 20.6998 34.5443 20.6741C35.0043 20.4637 35.3374 20.2423 35.5209 20.0596C35.7043 19.877 35.7328 19.7748 35.7328 19.6829V18.4835ZM0 18.4836V19.6829C0 19.7748 0.0285398 19.877 0.211922 20.0596C0.395381 20.2423 0.728501 20.4637 1.18854 20.674C1.24361 20.6992 1.30069 20.7243 1.35924 20.7491L0 18.4837V18.4836ZM7.62911 19.5685L4.78773 21.6996C4.93267 21.7274 5.077 21.7553 5.22658 21.7819C6.90711 22.0806 8.87906 22.3073 10.9974 22.4606L8.20192 19.6652C8.01077 19.6342 7.81983 19.602 7.62911 19.5685ZM25.7272 19.9195C23.9216 20.142 21.9681 20.2897 19.9145 20.3489L22.7824 22.4998L25.7272 19.9195ZM27.8357 19.923L24.9589 22.4436C26.992 22.2905 28.8852 22.07 30.5062 21.7819C30.5844 21.768 30.6588 21.7531 30.7357 21.7389L27.8357 19.923ZM10.4822 19.9769L12.9817 22.4763L15.8183 20.3489C13.9446 20.2949 12.1531 20.1678 10.4822 19.9769ZM17.8664 20.553L15.0571 22.66C15.9871 22.6857 16.9266 22.6993 17.8664 22.6993C18.8061 22.6993 19.7457 22.6857 20.6757 22.66L17.8664 20.553ZM0 21.6259V32.0579C0 32.4833 0.332578 32.9627 1.24446 33.4838C1.5502 33.6585 1.91194 33.8281 2.32031 33.9907V22.5547C1.67991 22.3708 1.10656 22.1674 0.609701 21.9403C0.392133 21.8408 0.188951 21.7369 0 21.6259V21.6259ZM35.7328 21.6259C35.5439 21.7368 35.3407 21.8407 35.1231 21.9403C34.6263 22.1673 34.0528 22.3708 33.4125 22.5546V33.9907C33.8209 33.8281 34.1826 33.6585 34.4883 33.4838C35.4002 32.9627 35.7328 32.4833 35.7328 32.0579V21.6259ZM3.7125 22.9027V34.4647C4.19172 34.6051 4.70776 34.7372 5.25574 34.859C7.24471 35.3009 9.64801 35.6162 12.2203 35.8026V23.9351C9.57021 23.7847 7.08005 23.5254 4.98279 23.1525C4.55778 23.0775 4.13427 22.9942 3.7125 22.9027ZM32.0203 22.9027C31.5985 22.9943 31.175 23.0776 30.75 23.1527C28.6528 23.5255 26.1626 23.7848 23.5125 23.9353V35.8025C26.0848 35.6162 28.4881 35.3009 30.4771 34.8589C31.0251 34.7372 31.5411 34.6051 32.0203 34.4647V22.9027ZM13.6125 24.0041V35.8906C15.0292 35.9654 16.4477 36.0027 17.8664 36.0024C19.2959 36.0024 20.726 35.9648 22.1203 35.8906V24.0041C20.724 24.0623 19.2957 24.0914 17.8664 24.0914C16.4371 24.0914 15.0088 24.0623 13.6125 24.0041Z" fill="white"/>
</svg>
